<svg xmlns="http://www.w3.org/2000/svg" xmlns:xlink="http://www.w3.org/1999/xlink" viewBox="0 0 138.957 50.024"><defs><style>.a{fill:url(#a);}</style><linearGradient id="a" x1="69.535" y1="50" x2="69.535" y2="-0.024" gradientTransform="matrix(1, 0, 0, -1, -0.056, 50)" gradientUnits="userSpaceOnUse"><stop offset="0" stop-color="#805ebe"/><stop offset="1" stop-color="#6441a4"/></linearGradient></defs><title>tgd_english_colour</title><path class="a" d="M138.957,10.02c-.037.333-.072.667-.111,1a9.817,9.817,0,0,1-8.351,8.55,1.157,1.157,0,0,1-.236.037,2.843,2.843,0,0,0-1.809.65c-1.451.957-2.92,1.886-4.383,2.825-.08.052-.166.1-.291.166V18.416a.467.467,0,0,0-.222-.438,9.626,9.626,0,0,1-4.26-9.152A9.781,9.781,0,0,1,127.576.109c.195-.029.387-.072.58-.109h1.86c.33.06.66.118.989.18a9.841,9.841,0,0,1,7.839,8.45q.057.515.112,1.03ZM81.026,6.91H108.47a8.4,8.4,0,0,1,7.1,3.617,15.2,15.2,0,0,1,2.561,6.206,25.655,25.655,0,0,1,.477,5.064c0,4.609.029,9.219-.01,13.827a20.689,20.689,0,0,1-1.734,8.569,10.407,10.407,0,0,1-3.52,4.387,8.128,8.128,0,0,1-4.713,1.432q-11.758.007-23.516,0a4,4,0,0,1-4.088-3.91v-.2c-.006-2.879,0-5.759,0-8.638V6.91ZM77.76,16.92H55.144a3.6,3.6,0,0,0-2.19.586,3.95,3.95,0,0,0-1.41,2.333,14.718,14.718,0,0,0-.441,3.74c-.024,3.1-.04,6.2-.017,9.3a15.083,15.083,0,0,0,.584,4.62,3.9,3.9,0,0,0,.98,1.661,3.17,3.17,0,0,0,2.281.828q4.92.011,9.84,0A3.127,3.127,0,0,0,67.9,37.865a10.517,10.517,0,0,0,.627-3.04c.044-.506.06-1.015.091-1.574H62.621a3.971,3.971,0,0,1-4-3.942h0v-.058a21.771,21.771,0,0,1,.068-2.664,3.917,3.917,0,0,1,3.849-3.335c3,0,6-.009,9,0a7.716,7.716,0,0,1,3.232.671,6.107,6.107,0,0,1,3.285,3.955,12.842,12.842,0,0,1,.568,3.929c0,1.859.022,3.722-.1,5.574a17.469,17.469,0,0,1-2.466,8.33,8.548,8.548,0,0,1-5.36,4.041A9.42,9.42,0,0,1,68.588,50c-5.74.019-11.48-.011-17.219.019A8.613,8.613,0,0,1,43.678,45.8a15.854,15.854,0,0,1-2.155-5.646,26.124,26.124,0,0,1-.473-5.065c-.006-4.51-.022-9.02.005-13.529a22,22,0,0,1,1.419-8.068A11.084,11.084,0,0,1,45.991,8.58a7.972,7.972,0,0,1,4.936-1.665q9.06-.015,18.119,0a11.819,11.819,0,0,1,3.717.567,6.431,6.431,0,0,1,4.151,3.948A15.358,15.358,0,0,1,77.76,16.92ZM39.96,6.934v6.022a3.982,3.982,0,0,1-3.974,3.964h-11V45.873a3.962,3.962,0,0,1-2.65,3.887,4.3,4.3,0,0,1-1.347.24c-1.93.026-3.86.011-5.79.01-.06,0-.119-.007-.219-.014V16.92H4a3.976,3.976,0,0,1-4-3.952H0V6.934Zm51.1,33.038c.124.007.222.017.319.017,4.44,0,8.88.011,13.32-.013a4.389,4.389,0,0,0,1.54-.311,3.145,3.145,0,0,0,1.749-2.128,13.558,13.558,0,0,0,.589-4.318c.019-3.439,0-6.878-.038-10.317a11.378,11.378,0,0,0-.545-3.512,3.242,3.242,0,0,0-3.432-2.471h-13.5Z"/></svg>