<svg xmlns="http://www.w3.org/2000/svg" xmlns:xlink="http://www.w3.org/1999/xlink" viewBox="0 0 1024.378 418.077"><defs><style>.a{fill:url(#a);}</style><linearGradient id="a" x1="512.189" y1="418.077" x2="512.189" gradientUnits="userSpaceOnUse"><stop offset="0.025" stop-color="#6441a4"/><stop offset="0.965" stop-color="#805ebe"/></linearGradient></defs><title>tgd_amanojaku - Copy_recolour</title><path class="a" d="M254.4,0c3.543.3,7.082.65,10.629.875a507.125,507.125,0,0,1,54,6.6c30.387,5.233,60.7,10.928,91.137,15.838A857.44,857.44,0,0,0,503.375,32.9c23.922,1.213,47.8,1.089,71.555-2.264,27.048-3.817,52.864-11.481,76.729-25.09,1.757-1,3.935-2.582,5.7-.809,1.807,1.815.031,3.929-.938,5.668a66.145,66.145,0,0,1-15.284,17.984c-5.885,5.033-11.282,10.634-17.125,15.719-20,17.4-42.262,31.5-65.277,44.489-32.275,18.214-65.668,33.937-100.945,45.493a390.609,390.609,0,0,1-75.613,17.01,391.515,391.515,0,0,1-64.887,2.071c-39.324-1.867-77.7-9.055-115.317-20.512-2.258-.688-2.434-1.776-1.454-3.469,4.862-8.4,10.869-15.789,19.037-21.214a8.684,8.684,0,0,1,7.772-1A463.551,463.551,0,0,0,304.515,123.7a427.218,427.218,0,0,0,87.585,2.23c47.192-3.642,91.736-16.713,134.437-36.759a642.868,642.868,0,0,0,70.182-37.855c.675-.426,1.326-.89,1.972-1.358.1-.069.106-.256.224-.571-4.361,1.364-8.589,2.745-12.852,4.01-22.592,6.7-45.748,9.67-69.238,10.547-26.666,1-53.2-.845-79.712-3.376C400.891,57.107,365,51.435,329.235,44.8c-25.063-4.647-50.183-8.979-75.562-11.559-23.506-2.39-47.055-3.294-70.626-1.055-33.682,3.2-65.6,11.971-94.489,30.229C70.13,74.064,57.351,90.476,47.894,109.8a167.087,167.087,0,0,0-16.832,69.3c-.966,31.814,3.606,62.6,15.97,92.049,8.175,19.468,19.349,36.922,35.327,51,14.823,13.062,32.114,21.656,50.767,27.691,19.609,6.344,39.826,9.087,60.352,9.912,18,.724,35.961-.158,53.909-1.5,16.743-1.249,33.492-2.512,50.3-1.6,10.355.562,20.525,2.064,29.814,7.13a32.737,32.737,0,0,1,10.788,9.059c6.249-1.97,12.509-4.087,18.852-5.916A336.647,336.647,0,0,1,429.55,354.7c12.438-.782,24.9-1.551,37.358-1.576,24.328-.049,48.524,2.115,72.645,5.292,66.339,8.737,129.673,28.3,191.618,52.917a19.11,19.11,0,0,1,3.986,2.157c2.4,1.7,2.385,2.665.2,4.587h-4.32a13.025,13.025,0,0,0-1.9-.844c-14.8-3.983-29.58-8.05-44.418-11.886-24.908-6.439-49.987-12.113-75.4-16.227q-36.706-5.943-73.8-8.562c-23.85-1.726-47.728-2.776-71.636-2.029-20.121.628-40.245,1.414-60.336,2.644A284.526,284.526,0,0,0,345.2,390.61c-11.285,3.111-22.3,7.224-33.392,11-2.148.731-3.625.681-5.258-1.167a33.433,33.433,0,0,0-12.975-8.811,65.189,65.189,0,0,0-25.552-4.657c-15.332.33-30.663,1.062-45.971,2.017-20.592,1.284-41.166,2.559-61.806,1.26-21.641-1.362-42.79-5.139-63.23-12.556-30.512-11.071-54.543-29.951-70.66-58.424-14.89-26.314-22.424-54.837-25.4-84.73C.656,231.56.319,228.581,0,225.6V203.04a14.914,14.914,0,0,0,.4-2.054,181.355,181.355,0,0,1,17.675-69.163c23.69-49.036,60.669-84.879,109.464-108.55C158.177,8.41,190.958,2.014,224.791.4A17.37,17.37,0,0,0,227.04,0ZM563.756,300.864c6.368,0,12.669-.028,18.97.006,10.711.058,21.421.184,32.132.23,15.026.064,30.075.333,44.657-4.282a10.006,10.006,0,0,1,2.354-.4c1.857-.121,2.818.852,2.388,2.628a18.611,18.611,0,0,1-1.88,4.883,68.835,68.835,0,0,1-24.89,25.091c-4.377,2.585-9.911,3.463-15.047,4.469-15.62,3.059-31.45,2.962-47.3,2.84-14.7-.113-29.4.313-44.1.569-2.728.047-3.279-.33-2.949-3.153,1.28-10.953,2.688-21.893,3.892-32.854,1.475-13.427,2.752-26.875,4.188-40.306q2.665-24.914,5.466-49.813c.617-5.493,3.361-10.137,6.428-14.546,6.386-9.18,14.646-16.423,23.841-22.684,7.4-5.038,15.782-6.379,24.429-6.467,13.436-.136,26.878.152,40.311-.1,10.222-.19,20.432-.95,30.65-1.418a3.072,3.072,0,0,0,2.914-1.96,207.175,207.175,0,0,1,38.172-52.856c15.093-15.073,31.787-28,51.544-36.5,7.9-3.4,16.111-5.739,24.8-5.83,4.877-.051,5.478.353,4.771,5.173-.8,5.432-2.282,10.765-3.488,16.136a194.234,194.234,0,0,0-4.729,42.325c-.017,9.487.7,18.976,1.126,28.462.042.947.375,1.878.51,2.825.278,1.936,1.451,2.754,3.3,3.208a108.5,108.5,0,0,1,50.313,27.425c8.062,7.757,14.45,16.86,21.117,25.746,5.821,7.758,11.836,15.309,20.094,20.728a23.977,23.977,0,0,0,14.554,4.4,56.817,56.817,0,0,1,28.035,6.18c9.992,5.085,15.848,13.267,17.234,24.363a15.009,15.009,0,0,1-1.144,8.358c-6.672,12.715-16.548,22.2-30.481,26.371-5.238,1.569-11.043,1.332-16.6,1.682a3.706,3.706,0,0,0-3.182,1.531A85.435,85.435,0,0,1,865.507,333.2c-13.949,9.3-29.3,10.89-45.3,7.768-3.97-.774-6.864-.379-10.26,1.981-14.19,9.858-30.284,14.875-47.211,17.52-19.228,3.005-38.423,2.289-57.548-.778-11.827-1.9-23.578-4.258-35.379-6.32-2.287-.4-2.634-1.265-2.306-3.567,1.047-7.345,1.721-14.745,2.484-22.129q2.133-20.629,4.2-41.265c.7-7.057,1.33-14.121,2-21.3-15.662,4.135-31.451,3.737-47.155,4.128-9.354.233-18.718.048-28.078.04-3.156,0-4.24-1.166-2.784-3.929a88.79,88.79,0,0,1,8.113-12.929,72.2,72.2,0,0,1,17.027-15.369,16.558,16.558,0,0,1,9.654-2.947c14.23,0,28.46-.209,42.69-.35.955-.009,1.909-.1,3.181-.164.284-2.841.578-5.666.847-8.494,1.52-15.97,4.037-31.671,11-46.388,6.78-14.342,16-26.517,29.65-34.958a23.42,23.42,0,0,1,5.852-2.626c2.543-.719,3.7.534,3.061,3.073a13.59,13.59,0,0,1-1.583,3.974c-7.343,11.461-10.6,24.255-11.923,37.563-1.977,19.959-3.51,39.961-5.386,59.93-1.166,12.411-2.724,24.785-3.908,37.194-1.207,12.649-2.177,25.321-3.238,37.983-.225,2.685-.394,5.374-.61,8.358,8.668,1.423,17.044,3.156,25.508,4.1,11.582,1.293,23.23,2.747,34.851,2.763,18.262.024,36.157-2.929,52.774-11.12,3.248-1.6,6.1-4.019,9.087-6.132,1.823-1.29,3.482-2.816,5.335-4.058a9.253,9.253,0,0,1,8.134-1.29,67.128,67.128,0,0,0,30.6,1.438c1.788-.342,3.145-.979,3.621-2.892,2.706-10.879,10.83-17.625,18.779-24.475,2.815-2.426,5.958-4,9.9-2.955a17.327,17.327,0,0,0,3.439.223l.4-.767a93.642,93.642,0,0,0-7.793-6.048,41.8,41.8,0,0,0-24.648-6.686c-13.7.784-23.495-5.744-31.764-15.3-6.424-7.422-12.168-15.439-18.124-23.26a109.066,109.066,0,0,0-56.55-39.219,29.419,29.419,0,0,0-4.662-1.082c-2.665-.349-4.193-1.679-4.5-4.4-.707-6.18-1.794-12.337-2.119-18.535-1.222-23.336,1.632-46.258,7.553-68.831.477-1.82.639-3.722,1.065-6.293-3.877.5-7.29.692-10.586,1.416-12.283,2.7-22.864,8.779-32.533,16.661-11.227,9.153-18.737,21.113-25.33,33.691-3.4,6.491-6.033,13.381-9.162,20.021a31.478,31.478,0,0,1-4.256,7.168c-4.738,5.513-9.719,10.821-14.7,16.116-6.953,7.384-16.024,9.565-25.7,10.766-20.085,2.493-40.233,1.825-60.375,1.858H574.3ZM187.633,203.6l-3.684,28.3c4.136.148,8,.379,11.875.409,21.587.165,43.178.6,64.759.3,13.889-.2,27.762-1.493,41.641-2.323,2.877-.172,3.6.552,2.6,3.283a45.862,45.862,0,0,1-10.993,16.689c-4.183,4.145-8.831,7.838-13.416,11.554A17.228,17.228,0,0,1,270,265.539c-17.161.732-34.311,1.8-51.479,2.306-12.14.354-24.3-.01-36.451-.054H180.6l-4.749,31.722c3.293,0,6.836-.055,10.377.01,12.865.238,25.728.521,38.593.776,7.512.149,15.026.246,22.537.423a337.408,337.408,0,0,0,42.4-1.213c2.623-.269,5.234-.664,7.859-.907,2.313-.214,3.328.755,2.592,2.938a30.49,30.49,0,0,1-3.606,7.743,91.744,91.744,0,0,1-16.9,17.9,32.5,32.5,0,0,1-18.558,7.366,417.428,417.428,0,0,1-50.544,1.1c-11.824-.367-23.656-.544-35.486-.664-9.743-.1-19.488,0-29.232.044a29.126,29.126,0,0,0-3.339.306c-2.841.342-3.8-.809-3.184-3.612,1.262-5.752,2.766-11.478,3.576-17.3,1.542-11.073,2.76-22.194,3.944-33.314,2.276-21.374,4.694-42.714,8.627-63.874,3.5-18.823,14.465-32.117,29.854-42.467a36.455,36.455,0,0,1,20.587-6.173c16.632-.086,33.271.357,49.9.034,16.61-.323,33.208-1.279,49.808-2.044,4.46-.205,5.29.7,3.29,4.794a65.049,65.049,0,0,1-27.38,28.668c-2.509,1.4-5.811,1.749-8.783,1.9-14.122.731-28.252,1.457-42.387,1.741-13.029.262-26.068-.04-39.1-.093C190.166,203.6,189.057,203.6,187.633,203.6Zm236.519,24.469,14.361-1.1c.55-4.639.9-9.25,1.677-13.789,1.368-8.023,2.9-16.021,4.537-24,1.3-6.334,4.512-11.681,8.783-16.515,5.745-6.5,11.749-12.671,19.433-16.9a22.517,22.517,0,0,1,5.117-1.941c1.808-.475,2.757.482,2.636,2.337a9.179,9.179,0,0,1-.484,2.335c-3.511,10.29-4.84,20.985-5.985,31.724q-2.719,25.512-5.558,51.011c-1.773,15.724-3.669,31.435-5.517,47.151a123.526,123.526,0,0,1-7.125,29.509c-1.641,4.315-5.088,8.061-8.164,11.685-5.4,6.363-11.467,12.092-19.072,15.8-1.645.8-4.2,1.474-5.546.743-1.952-1.063-.621-3.5-.059-5.252,3.583-11.185,5-22.756,6.315-34.354,1.658-14.611,3.372-29.216,5.06-43.824.036-.314.043-.632.077-1.161-4.171,0-8.311.3-12.389-.081-4.347-.4-6.149,1.292-7.8,5.348-8.153,20-21.342,36.423-37.382,50.678A117.081,117.081,0,0,1,353.014,334.4a35.934,35.934,0,0,1-7.567,2.893c-1.029.26-2.367-.7-3.565-1.109.525-1.061.793-2.432,1.625-3.124a67.043,67.043,0,0,1,7.02-5.012C367.99,317,378.642,301,384.464,281.478c3.372-11.308,4.971-22.938,6.184-34.628,1.574-15.178,2.535-30.432,5.83-45.388a10.241,10.241,0,0,0,.091-1.218c-4.172,0-8.284-.1-12.39.019-13.26.4-26.521.809-39.776,1.358a109.819,109.819,0,0,0-26.639,4.492c-1.607.474-3.464.1-5.206.117.232-1.741.072-3.659.764-5.192,3.252-7.2,8.855-12.58,14.2-18.226,8.545-9.019,19.5-12.3,31.165-14.359a190.17,190.17,0,0,1,30.794-2.428c12.066-.156,24.128-.65,36.191-.979,1.357-.037,2.719.09,4.077.064,2.192-.041,2.8,1.057,2.41,3.063-1.377,7.049-3.046,14.062-4,21.169-1.261,9.42-1.943,18.918-2.891,28.381C424.94,221.055,424.553,224.381,424.152,228.069Zm499.605-6.485v-2.972c-.052-8.554-.058-17.108-.217-25.66a5.6,5.6,0,0,0-1.3-3.326c-15-17.009-19.867-36.537-13.1-58.159,6.709-21.453,21.711-34.867,43.58-39.982,33.526-7.842,67.071,15.939,71.2,50.122,3.942,32.624-17.979,61.62-50.714,65.938-11.9,1.57-22.734,6.128-34.082,9.216C934.122,218.12,929.228,219.853,923.757,221.584ZM538.984,132.136c-1.079,2.293-1.824,4.829-3.292,6.838-8.821,12.075-12.384,26.06-14.359,40.448-2.9,21.131-5.3,42.334-7.729,63.526-2.543,22.151-4.814,44.333-7.385,66.481a16.851,16.851,0,0,1-2.728,6.808A71.252,71.252,0,0,1,478.66,340.08a23.18,23.18,0,0,1-4.354,1.969c-2.427.779-3.357-.01-3.078-2.5.907-8.1,1.9-16.192,2.781-24.3q2.567-23.715,5.035-47.441c2.517-24.4,4.362-48.889,10.1-72.827,5.228-21.793,15.314-40.958,31.82-56.349,3.5-3.267,7.932-5.555,12-8.194a7.627,7.627,0,0,1,2.946-.9C538.043,129.206,538.732,129.878,538.984,132.136Z" transform="translate(0 0)"/></svg>